<svg width="358" height="50" viewBox="0 0 358 50" fill="none" xmlns="http://www.w3.org/2000/svg">
<rect width="358" height="50" rx="2" fill="black"/>
<path d="M158.684 23C158.544 22.5696 158.358 22.1839 158.128 21.843C157.903 21.4979 157.632 21.2038 157.317 20.9609C157.006 20.718 156.652 20.5327 156.256 20.4048C155.859 20.277 155.425 20.2131 154.952 20.2131C154.176 20.2131 153.471 20.4134 152.836 20.8139C152.201 21.2145 151.696 21.8047 151.321 22.5845C150.946 23.3643 150.758 24.321 150.758 25.4545C150.758 26.5881 150.948 27.5447 151.327 28.3246C151.706 29.1044 152.22 29.6946 152.868 30.0952C153.515 30.4957 154.244 30.696 155.054 30.696C155.804 30.696 156.464 30.5362 157.035 30.2166C157.611 29.8928 158.058 29.4368 158.378 28.8487C158.702 28.2564 158.863 27.5597 158.863 26.7585L159.349 26.8608H155.412V25.4545H160.398V26.8608C160.398 27.9389 160.167 28.8764 159.707 29.6733C159.251 30.4702 158.621 31.0881 157.815 31.527C157.014 31.9616 156.094 32.179 155.054 32.179C153.895 32.179 152.876 31.9062 151.998 31.3608C151.125 30.8153 150.443 30.0398 149.953 29.0341C149.467 28.0284 149.224 26.8352 149.224 25.4545C149.224 24.419 149.363 23.4879 149.64 22.6612C149.921 21.8303 150.317 21.1229 150.829 20.5391C151.34 19.9553 151.945 19.5078 152.644 19.1967C153.343 18.8857 154.112 18.7301 154.952 18.7301C155.642 18.7301 156.285 18.8345 156.882 19.0433C157.483 19.2479 158.018 19.5398 158.486 19.919C158.959 20.294 159.354 20.7436 159.669 21.2678C159.984 21.7876 160.202 22.3651 160.321 23H158.684ZM169.096 27.9858V22.1818H170.604V32H169.096V30.3381H168.993C168.763 30.8366 168.405 31.2607 167.919 31.6101C167.434 31.9553 166.82 32.1278 166.078 32.1278C165.465 32.1278 164.919 31.9936 164.442 31.7251C163.965 31.4524 163.59 31.0433 163.317 30.4979C163.044 29.9482 162.908 29.2557 162.908 28.4205V22.1818H164.417V28.3182C164.417 29.0341 164.617 29.6051 165.017 30.0312C165.422 30.4574 165.938 30.6705 166.564 30.6705C166.939 30.6705 167.321 30.5746 167.708 30.3828C168.1 30.1911 168.429 29.897 168.693 29.5007C168.961 29.1044 169.096 28.5994 169.096 27.9858ZM176.256 32.2301C175.634 32.2301 175.069 32.1129 174.562 31.8786C174.055 31.6399 173.653 31.2969 173.354 30.8494C173.056 30.3977 172.907 29.8523 172.907 29.2131C172.907 28.6506 173.018 28.1946 173.239 27.8452C173.461 27.4915 173.757 27.2145 174.128 27.0142C174.498 26.8139 174.907 26.6648 175.355 26.5668C175.807 26.4645 176.26 26.3835 176.716 26.3239C177.313 26.2472 177.797 26.1896 178.167 26.1513C178.542 26.1087 178.815 26.0384 178.986 25.9403C179.16 25.8423 179.248 25.6719 179.248 25.429V25.3778C179.248 24.7472 179.075 24.2571 178.73 23.9077C178.389 23.5582 177.871 23.3835 177.177 23.3835C176.456 23.3835 175.892 23.5412 175.483 23.8565C175.074 24.1719 174.786 24.5085 174.62 24.8665L173.188 24.3551C173.444 23.7585 173.785 23.294 174.211 22.9616C174.641 22.625 175.11 22.3906 175.617 22.2585C176.128 22.1222 176.631 22.054 177.126 22.054C177.441 22.054 177.803 22.0923 178.212 22.169C178.626 22.2415 179.024 22.3928 179.407 22.6229C179.795 22.853 180.117 23.2003 180.373 23.6648C180.628 24.1293 180.756 24.7514 180.756 25.5312V32H179.248V30.6705H179.171C179.069 30.8835 178.898 31.1115 178.66 31.3544C178.421 31.5973 178.104 31.804 177.707 31.9744C177.311 32.1449 176.827 32.2301 176.256 32.2301ZM176.486 30.875C177.083 30.875 177.586 30.7578 177.995 30.5234C178.408 30.2891 178.719 29.9865 178.928 29.6158C179.141 29.245 179.248 28.8551 179.248 28.446V27.0653C179.184 27.142 179.043 27.2124 178.826 27.2763C178.613 27.3359 178.366 27.3892 178.084 27.4361C177.807 27.4787 177.537 27.517 177.273 27.5511C177.013 27.581 176.802 27.6065 176.64 27.6278C176.248 27.679 175.881 27.7621 175.54 27.8771C175.204 27.9879 174.931 28.1562 174.722 28.3821C174.518 28.6037 174.415 28.9062 174.415 29.2898C174.415 29.8139 174.609 30.2102 174.997 30.4787C175.389 30.7429 175.885 30.875 176.486 30.875ZM183.51 32V22.1818H184.967V23.6648H185.069C185.248 23.179 185.572 22.7848 186.041 22.4822C186.51 22.1797 187.038 22.0284 187.626 22.0284C187.737 22.0284 187.875 22.0305 188.042 22.0348C188.208 22.0391 188.333 22.0455 188.419 22.054V23.5881C188.368 23.5753 188.25 23.5561 188.067 23.5305C187.888 23.5007 187.699 23.4858 187.498 23.4858C187.021 23.4858 186.595 23.5859 186.22 23.7862C185.849 23.9822 185.555 24.255 185.338 24.6044C185.125 24.9496 185.018 25.3437 185.018 25.7869V32H183.51ZM193.615 32.2045C192.797 32.2045 192.075 31.9979 191.449 31.5845C190.822 31.1669 190.332 30.5788 189.978 29.8203C189.625 29.0575 189.448 28.1562 189.448 27.1165C189.448 26.0852 189.625 25.1903 189.978 24.4318C190.332 23.6733 190.824 23.0874 191.455 22.674C192.086 22.2607 192.814 22.054 193.641 22.054C194.28 22.054 194.785 22.1605 195.156 22.3736C195.531 22.5824 195.816 22.821 196.012 23.0895C196.213 23.3537 196.368 23.571 196.479 23.7415H196.607V18.9091H198.115V32H196.658V30.4915H196.479C196.368 30.6705 196.211 30.8963 196.006 31.169C195.801 31.4375 195.51 31.6783 195.13 31.8913C194.751 32.1001 194.246 32.2045 193.615 32.2045ZM193.82 30.8494C194.425 30.8494 194.936 30.6918 195.354 30.3764C195.772 30.0568 196.089 29.6158 196.306 29.0533C196.524 28.4865 196.632 27.8324 196.632 27.0909C196.632 26.358 196.526 25.7166 196.313 25.1669C196.1 24.6129 195.784 24.1825 195.367 23.8757C194.949 23.5646 194.434 23.4091 193.82 23.4091C193.181 23.4091 192.648 23.5732 192.222 23.9013C191.8 24.2251 191.483 24.6662 191.27 25.2244C191.061 25.7784 190.956 26.4006 190.956 27.0909C190.956 27.7898 191.063 28.4247 191.276 28.9957C191.493 29.5625 191.813 30.0142 192.235 30.3509C192.661 30.6832 193.189 30.8494 193.82 30.8494ZM203.977 32.2301C203.355 32.2301 202.79 32.1129 202.283 31.8786C201.776 31.6399 201.373 31.2969 201.075 30.8494C200.777 30.3977 200.627 29.8523 200.627 29.2131C200.627 28.6506 200.738 28.1946 200.96 27.8452C201.181 27.4915 201.478 27.2145 201.848 27.0142C202.219 26.8139 202.628 26.6648 203.076 26.5668C203.527 26.4645 203.981 26.3835 204.437 26.3239C205.034 26.2472 205.517 26.1896 205.888 26.1513C206.263 26.1087 206.536 26.0384 206.706 25.9403C206.881 25.8423 206.968 25.6719 206.968 25.429V25.3778C206.968 24.7472 206.796 24.2571 206.451 23.9077C206.11 23.5582 205.592 23.3835 204.897 23.3835C204.177 23.3835 203.613 23.5412 203.203 23.8565C202.794 24.1719 202.507 24.5085 202.341 24.8665L200.909 24.3551C201.164 23.7585 201.505 23.294 201.931 22.9616C202.362 22.625 202.831 22.3906 203.338 22.2585C203.849 22.1222 204.352 22.054 204.846 22.054C205.162 22.054 205.524 22.0923 205.933 22.169C206.346 22.2415 206.745 22.3928 207.128 22.6229C207.516 22.853 207.838 23.2003 208.093 23.6648C208.349 24.1293 208.477 24.7514 208.477 25.5312V32H206.968V30.6705H206.892C206.789 30.8835 206.619 31.1115 206.38 31.3544C206.142 31.5973 205.824 31.804 205.428 31.9744C205.032 32.1449 204.548 32.2301 203.977 32.2301ZM204.207 30.875C204.804 30.875 205.306 30.7578 205.716 30.5234C206.129 30.2891 206.44 29.9865 206.649 29.6158C206.862 29.245 206.968 28.8551 206.968 28.446V27.0653C206.904 27.142 206.764 27.2124 206.547 27.2763C206.333 27.3359 206.086 27.3892 205.805 27.4361C205.528 27.4787 205.257 27.517 204.993 27.5511C204.733 27.581 204.522 27.6065 204.36 27.6278C203.968 27.679 203.602 27.7621 203.261 27.8771C202.924 27.9879 202.652 28.1562 202.443 28.3821C202.238 28.6037 202.136 28.9062 202.136 29.2898C202.136 29.8139 202.33 30.2102 202.718 30.4787C203.11 30.7429 203.606 30.875 204.207 30.875Z" fill="white"/>
</svg>
