<svg width="358" height="50" viewBox="0 0 358 50" fill="none" xmlns="http://www.w3.org/2000/svg">
<rect width="358" height="50" rx="2" fill="black"/>
<path d="M135.024 23C134.884 22.5696 134.698 22.1839 134.468 21.843C134.242 21.4979 133.972 21.2038 133.656 20.9609C133.345 20.718 132.992 20.5327 132.595 20.4048C132.199 20.277 131.764 20.2131 131.291 20.2131C130.516 20.2131 129.811 20.4134 129.176 20.8139C128.541 21.2145 128.036 21.8047 127.661 22.5845C127.286 23.3643 127.098 24.321 127.098 25.4545C127.098 26.5881 127.288 27.5447 127.667 28.3246C128.046 29.1044 128.56 29.6946 129.208 30.0952C129.855 30.4957 130.584 30.696 131.394 30.696C132.144 30.696 132.804 30.5362 133.375 30.2166C133.95 29.8928 134.398 29.4368 134.718 28.8487C135.041 28.2564 135.203 27.5597 135.203 26.7585L135.689 26.8608H131.752V25.4545H136.737V26.8608C136.737 27.9389 136.507 28.8764 136.047 29.6733C135.591 30.4702 134.96 31.0881 134.155 31.527C133.354 31.9616 132.433 32.179 131.394 32.179C130.235 32.179 129.216 31.9062 128.338 31.3608C127.465 30.8153 126.783 30.0398 126.293 29.0341C125.807 28.0284 125.564 26.8352 125.564 25.4545C125.564 24.419 125.703 23.4879 125.98 22.6612C126.261 21.8303 126.657 21.1229 127.169 20.5391C127.68 19.9553 128.285 19.5078 128.984 19.1967C129.683 18.8857 130.452 18.7301 131.291 18.7301C131.982 18.7301 132.625 18.8345 133.222 19.0433C133.823 19.2479 134.357 19.5398 134.826 19.919C135.299 20.294 135.693 20.7436 136.009 21.2678C136.324 21.7876 136.541 22.3651 136.661 23H135.024ZM145.435 27.9858V22.1818H146.944V32H145.435V30.3381H145.333C145.103 30.8366 144.745 31.2607 144.259 31.6101C143.773 31.9553 143.16 32.1278 142.418 32.1278C141.805 32.1278 141.259 31.9936 140.782 31.7251C140.305 31.4524 139.93 31.0433 139.657 30.4979C139.384 29.9482 139.248 29.2557 139.248 28.4205V22.1818H140.756V28.3182C140.756 29.0341 140.957 29.6051 141.357 30.0312C141.762 30.4574 142.278 30.6705 142.904 30.6705C143.279 30.6705 143.661 30.5746 144.048 30.3828C144.44 30.1911 144.768 29.897 145.033 29.5007C145.301 29.1044 145.435 28.5994 145.435 27.9858ZM152.596 32.2301C151.974 32.2301 151.409 32.1129 150.902 31.8786C150.395 31.6399 149.992 31.2969 149.694 30.8494C149.396 30.3977 149.247 29.8523 149.247 29.2131C149.247 28.6506 149.357 28.1946 149.579 27.8452C149.801 27.4915 150.097 27.2145 150.468 27.0142C150.838 26.8139 151.247 26.6648 151.695 26.5668C152.146 26.4645 152.6 26.3835 153.056 26.3239C153.653 26.2472 154.137 26.1896 154.507 26.1513C154.882 26.1087 155.155 26.0384 155.325 25.9403C155.5 25.8423 155.588 25.6719 155.588 25.429V25.3778C155.588 24.7472 155.415 24.2571 155.07 23.9077C154.729 23.5582 154.211 23.3835 153.517 23.3835C152.796 23.3835 152.232 23.5412 151.823 23.8565C151.414 24.1719 151.126 24.5085 150.96 24.8665L149.528 24.3551C149.784 23.7585 150.124 23.294 150.551 22.9616C150.981 22.625 151.45 22.3906 151.957 22.2585C152.468 22.1222 152.971 22.054 153.465 22.054C153.781 22.054 154.143 22.0923 154.552 22.169C154.965 22.2415 155.364 22.3928 155.747 22.6229C156.135 22.853 156.457 23.2003 156.713 23.6648C156.968 24.1293 157.096 24.7514 157.096 25.5312V32H155.588V30.6705H155.511C155.409 30.8835 155.238 31.1115 154.999 31.3544C154.761 31.5973 154.443 31.804 154.047 31.9744C153.651 32.1449 153.167 32.2301 152.596 32.2301ZM152.826 30.875C153.423 30.875 153.926 30.7578 154.335 30.5234C154.748 30.2891 155.059 29.9865 155.268 29.6158C155.481 29.245 155.588 28.8551 155.588 28.446V27.0653C155.524 27.142 155.383 27.2124 155.166 27.2763C154.953 27.3359 154.705 27.3892 154.424 27.4361C154.147 27.4787 153.877 27.517 153.612 27.5511C153.352 27.581 153.142 27.6065 152.98 27.6278C152.588 27.679 152.221 27.7621 151.88 27.8771C151.544 27.9879 151.271 28.1562 151.062 28.3821C150.857 28.6037 150.755 28.9062 150.755 29.2898C150.755 29.8139 150.949 30.2102 151.337 30.4787C151.729 30.7429 152.225 30.875 152.826 30.875ZM159.849 32V22.1818H161.307V23.6648H161.409C161.588 23.179 161.912 22.7848 162.381 22.4822C162.849 22.1797 163.378 22.0284 163.966 22.0284C164.077 22.0284 164.215 22.0305 164.381 22.0348C164.548 22.0391 164.673 22.0455 164.759 22.054V23.5881C164.707 23.5753 164.59 23.5561 164.407 23.5305C164.228 23.5007 164.038 23.4858 163.838 23.4858C163.361 23.4858 162.935 23.5859 162.56 23.7862C162.189 23.9822 161.895 24.255 161.678 24.6044C161.464 24.9496 161.358 25.3437 161.358 25.7869V32H159.849ZM169.955 32.2045C169.137 32.2045 168.415 31.9979 167.788 31.5845C167.162 31.1669 166.672 30.5788 166.318 29.8203C165.964 29.0575 165.788 28.1562 165.788 27.1165C165.788 26.0852 165.964 25.1903 166.318 24.4318C166.672 23.6733 167.164 23.0874 167.795 22.674C168.425 22.2607 169.154 22.054 169.981 22.054C170.62 22.054 171.125 22.1605 171.496 22.3736C171.871 22.5824 172.156 22.821 172.352 23.0895C172.553 23.3537 172.708 23.571 172.819 23.7415H172.947V18.9091H174.455V32H172.998V30.4915H172.819C172.708 30.6705 172.55 30.8963 172.346 31.169C172.141 31.4375 171.849 31.6783 171.47 31.8913C171.091 32.1001 170.586 32.2045 169.955 32.2045ZM170.16 30.8494C170.765 30.8494 171.276 30.6918 171.694 30.3764C172.112 30.0568 172.429 29.6158 172.646 29.0533C172.864 28.4865 172.972 27.8324 172.972 27.0909C172.972 26.358 172.866 25.7166 172.653 25.1669C172.44 24.6129 172.124 24.1825 171.707 23.8757C171.289 23.5646 170.773 23.4091 170.16 23.4091C169.521 23.4091 168.988 23.5732 168.562 23.9013C168.14 24.2251 167.822 24.6662 167.609 25.2244C167.401 25.7784 167.296 26.4006 167.296 27.0909C167.296 27.7898 167.403 28.4247 167.616 28.9957C167.833 29.5625 168.153 30.0142 168.575 30.3509C169.001 30.6832 169.529 30.8494 170.16 30.8494ZM180.317 32.2301C179.695 32.2301 179.13 32.1129 178.623 31.8786C178.116 31.6399 177.713 31.2969 177.415 30.8494C177.116 30.3977 176.967 29.8523 176.967 29.2131C176.967 28.6506 177.078 28.1946 177.3 27.8452C177.521 27.4915 177.817 27.2145 178.188 27.0142C178.559 26.8139 178.968 26.6648 179.415 26.5668C179.867 26.4645 180.321 26.3835 180.777 26.3239C181.374 26.2472 181.857 26.1896 182.228 26.1513C182.603 26.1087 182.876 26.0384 183.046 25.9403C183.221 25.8423 183.308 25.6719 183.308 25.429V25.3778C183.308 24.7472 183.136 24.2571 182.79 23.9077C182.45 23.5582 181.932 23.3835 181.237 23.3835C180.517 23.3835 179.952 23.5412 179.543 23.8565C179.134 24.1719 178.847 24.5085 178.68 24.8665L177.249 24.3551C177.504 23.7585 177.845 23.294 178.271 22.9616C178.702 22.625 179.17 22.3906 179.678 22.2585C180.189 22.1222 180.692 22.054 181.186 22.054C181.501 22.054 181.864 22.0923 182.273 22.169C182.686 22.2415 183.085 22.3928 183.468 22.6229C183.856 22.853 184.178 23.2003 184.433 23.6648C184.689 24.1293 184.817 24.7514 184.817 25.5312V32H183.308V30.6705H183.232C183.129 30.8835 182.959 31.1115 182.72 31.3544C182.482 31.5973 182.164 31.804 181.768 31.9744C181.371 32.1449 180.888 32.2301 180.317 32.2301ZM180.547 30.875C181.143 30.875 181.646 30.7578 182.055 30.5234C182.469 30.2891 182.78 29.9865 182.989 29.6158C183.202 29.245 183.308 28.8551 183.308 28.446V27.0653C183.244 27.142 183.104 27.2124 182.886 27.2763C182.673 27.3359 182.426 27.3892 182.145 27.4361C181.868 27.4787 181.597 27.517 181.333 27.5511C181.073 27.581 180.862 27.6065 180.7 27.6278C180.308 27.679 179.942 27.7621 179.601 27.8771C179.264 27.9879 178.991 28.1562 178.783 28.3821C178.578 28.6037 178.476 28.9062 178.476 29.2898C178.476 29.8139 178.67 30.2102 179.058 30.4787C179.45 30.7429 179.946 30.875 180.547 30.875ZM189.079 26.0938V32H187.57V22.1818H189.028V23.7159H189.155C189.385 23.2173 189.735 22.8168 190.204 22.5142C190.672 22.2074 191.278 22.054 192.019 22.054C192.684 22.054 193.265 22.1903 193.764 22.4631C194.263 22.7315 194.65 23.1406 194.927 23.6903C195.204 24.2358 195.343 24.9261 195.343 25.7614V32H193.834V25.8636C193.834 25.0923 193.634 24.4915 193.233 24.0611C192.833 23.6264 192.283 23.4091 191.584 23.4091C191.103 23.4091 190.672 23.5135 190.293 23.7223C189.918 23.9311 189.622 24.2358 189.405 24.6364C189.187 25.0369 189.079 25.5227 189.079 26.0938ZM201.807 32.2045C200.989 32.2045 200.266 31.9979 199.64 31.5845C199.013 31.1669 198.523 30.5788 198.17 29.8203C197.816 29.0575 197.639 28.1562 197.639 27.1165C197.639 26.0852 197.816 25.1903 198.17 24.4318C198.523 23.6733 199.016 23.0874 199.646 22.674C200.277 22.2607 201.006 22.054 201.832 22.054C202.472 22.054 202.977 22.1605 203.347 22.3736C203.722 22.5824 204.008 22.821 204.204 23.0895C204.404 23.3537 204.56 23.571 204.67 23.7415H204.798V18.9091H206.307V32H204.849V30.4915H204.67C204.56 30.6705 204.402 30.8963 204.197 31.169C203.993 31.4375 203.701 31.6783 203.322 31.8913C202.942 32.1001 202.438 32.2045 201.807 32.2045ZM202.011 30.8494C202.616 30.8494 203.128 30.6918 203.545 30.3764C203.963 30.0568 204.281 29.6158 204.498 29.0533C204.715 28.4865 204.824 27.8324 204.824 27.0909C204.824 26.358 204.717 25.7166 204.504 25.1669C204.291 24.6129 203.976 24.1825 203.558 23.8757C203.141 23.5646 202.625 23.4091 202.011 23.4091C201.372 23.4091 200.839 23.5732 200.413 23.9013C199.991 24.2251 199.674 24.6662 199.461 25.2244C199.252 25.7784 199.148 26.4006 199.148 27.0909C199.148 27.7898 199.254 28.4247 199.467 28.9957C199.685 29.5625 200.004 30.0142 200.426 30.3509C200.852 30.6832 201.381 30.8494 202.011 30.8494ZM213.268 32.2045C212.381 32.2045 211.604 31.9936 210.935 31.5717C210.27 31.1499 209.75 30.5597 209.375 29.8011C209.004 29.0426 208.819 28.1562 208.819 27.142C208.819 26.1193 209.004 25.2266 209.375 24.4638C209.75 23.701 210.27 23.1087 210.935 22.6868C211.604 22.2649 212.381 22.054 213.268 22.054C214.154 22.054 214.93 22.2649 215.594 22.6868C216.263 23.1087 216.783 23.701 217.154 24.4638C217.529 25.2266 217.717 26.1193 217.717 27.142C217.717 28.1562 217.529 29.0426 217.154 29.8011C216.783 30.5597 216.263 31.1499 215.594 31.5717C214.93 31.9936 214.154 32.2045 213.268 32.2045ZM213.268 30.8494C213.941 30.8494 214.495 30.6768 214.93 30.3317C215.364 29.9865 215.686 29.5327 215.895 28.9702C216.104 28.4077 216.208 27.7983 216.208 27.142C216.208 26.4858 216.104 25.8743 215.895 25.3075C215.686 24.7408 215.364 24.2827 214.93 23.9332C214.495 23.5838 213.941 23.4091 213.268 23.4091C212.594 23.4091 212.04 23.5838 211.606 23.9332C211.171 24.2827 210.849 24.7408 210.641 25.3075C210.432 25.8743 210.327 26.4858 210.327 27.142C210.327 27.7983 210.432 28.4077 210.641 28.9702C210.849 29.5327 211.171 29.9865 211.606 30.3317C212.04 30.6768 212.594 30.8494 213.268 30.8494ZM221.119 32.1023C220.803 32.1023 220.533 31.9893 220.307 31.7635C220.081 31.5376 219.968 31.267 219.968 30.9517C219.968 30.6364 220.081 30.3658 220.307 30.1399C220.533 29.9141 220.803 29.8011 221.119 29.8011C221.434 29.8011 221.705 29.9141 221.931 30.1399C222.156 30.3658 222.269 30.6364 222.269 30.9517C222.269 31.1605 222.216 31.3523 222.11 31.527C222.007 31.7017 221.869 31.8423 221.694 31.9489C221.524 32.0511 221.332 32.1023 221.119 32.1023ZM226.076 32.1023C225.76 32.1023 225.49 31.9893 225.264 31.7635C225.038 31.5376 224.925 31.267 224.925 30.9517C224.925 30.6364 225.038 30.3658 225.264 30.1399C225.49 29.9141 225.76 29.8011 226.076 29.8011C226.391 29.8011 226.662 29.9141 226.888 30.1399C227.113 30.3658 227.226 30.6364 227.226 30.9517C227.226 31.1605 227.173 31.3523 227.067 31.527C226.964 31.7017 226.826 31.8423 226.651 31.9489C226.481 32.0511 226.289 32.1023 226.076 32.1023ZM231.033 32.1023C230.718 32.1023 230.447 31.9893 230.221 31.7635C229.995 31.5376 229.882 31.267 229.882 30.9517C229.882 30.6364 229.995 30.3658 230.221 30.1399C230.447 29.9141 230.718 29.8011 231.033 29.8011C231.348 29.8011 231.619 29.9141 231.845 30.1399C232.07 30.3658 232.183 30.6364 232.183 30.9517C232.183 31.1605 232.13 31.3523 232.024 31.527C231.921 31.7017 231.783 31.8423 231.608 31.9489C231.438 32.0511 231.246 32.1023 231.033 32.1023Z" fill="white"/>
</svg>
